<?xml version="1.0" encoding="UTF-8" standalone="no"?>
<!-- Generator: Adobe Illustrator 21.1.0, SVG Export Plug-In . SVG Version: 6.00 Build 0)  -->

<svg
   xmlns:dc="http://purl.org/dc/elements/1.1/"
   xmlns:cc="http://creativecommons.org/ns#"
   xmlns:rdf="http://www.w3.org/1999/02/22-rdf-syntax-ns#"
   xmlns:svg="http://www.w3.org/2000/svg"
   xmlns="http://www.w3.org/2000/svg"
   xmlns:sodipodi="http://sodipodi.sourceforge.net/DTD/sodipodi-0.dtd"
   xmlns:inkscape="http://www.inkscape.org/namespaces/inkscape"
   version="1.1"
   id="Text_Edit"
   x="0px"
   y="0px"
   viewBox="0 0 450 450"
   xml:space="preserve"
   sodipodi:docname="BI-CALCULUS-Logo-RGB-Blue-Long.svg"
   width="450"
   height="450"
   inkscape:version="0.92.5 (2060ec1f9f, 2020-04-08)"><metadata
   id="metadata77"><rdf:RDF><cc:Work
       rdf:about=""><dc:format>image/svg+xml</dc:format><dc:type
         rdf:resource="http://purl.org/dc/dcmitype/StillImage" /><dc:title></dc:title></cc:Work></rdf:RDF></metadata><defs
   id="defs75">
	
	
	
</defs><sodipodi:namedview
   pagecolor="#ffffff"
   bordercolor="#666666"
   borderopacity="1"
   objecttolerance="10"
   gridtolerance="10"
   guidetolerance="10"
   inkscape:pageopacity="0"
   inkscape:pageshadow="2"
   inkscape:window-width="1920"
   inkscape:window-height="948"
   id="namedview73"
   showgrid="false"
   inkscape:zoom="1.0496943"
   inkscape:cx="615.92395"
   inkscape:cy="279.80086"
   inkscape:window-x="0"
   inkscape:window-y="27"
   inkscape:window-maximized="1"
   inkscape:current-layer="Text_Edit" />
<style
   type="text/css"
   id="style2">
	.st0{fill:#336699;}
</style>
<g
   id="g8"
   transform="translate(-100,-76.5)">
		<path
   style="fill:#336699"
   inkscape:connector-curvature="0"
   id="path4"
   d="M 484.1,142.4 C 441.6,99.9 385.1,76.5 325,76.5 c -60.1,0 -116.6,23.4 -159.1,65.9 -42.5,42.5 -65.9,99 -65.9,159.1 0,60.1 23.4,116.6 65.9,159.1 42.5,42.5 99,65.9 159.1,65.9 60.1,0 116.6,-23.4 159.1,-65.9 42.5,-42.5 65.9,-99 65.9,-159.1 0,-60.1 -23.4,-116.6 -65.9,-159.1 z M 325,514.5 c -117.45,0 -213,-95.55 -213,-213 0,-117.45 95.55,-213 213,-213 117.45,0 213,95.55 213,213 0,117.45 -95.55,213 -213,213 z"
   class="st0" />
		<path
   style="fill:#336699"
   inkscape:connector-curvature="0"
   id="path6"
   d="m 361.59,299.5 c 2.8,14.23 15.37,25 30.41,25 17.09,0 31,-13.91 31,-31 0,-17.09 -13.91,-31 -31,-31 -15.04,0 -27.61,10.77 -30.41,25 H 299 v -62.59 c 14.23,-2.8 25,-15.37 25,-30.41 0,-17.09 -13.91,-31 -31,-31 -17.09,0 -31,13.91 -31,31 0,15.04 10.77,27.61 25,30.41 V 368.5 c 0,9.92 8.07,18 18,18 h 56.59 c 2.8,14.23 15.37,25 30.41,25 17.09,0 31,-13.91 31,-31 0,-17.09 -13.91,-31 -31,-31 -15.04,0 -27.61,10.77 -30.41,25 H 305 c -3.31,0 -6,-2.69 -6,-6 v -69 z m 30.41,-25 c 10.48,0 19,8.52 19,19 0,10.48 -8.52,19 -19,19 -10.48,0 -19,-8.52 -19,-19 0,-10.48 8.52,-19 19,-19 z m 0,87 c 10.48,0 19,8.52 19,19 0,10.48 -8.52,19 -19,19 -10.48,0 -19,-8.52 -19,-19 0,-10.48 8.52,-19 19,-19 z m -99,-148 c -10.48,0 -19,-8.52 -19,-19 0,-10.48 8.52,-19 19,-19 10.48,0 19,8.52 19,19 0,10.48 -8.52,19 -19,19 z"
   class="st0" />
	</g>
</svg>