<?xml version="1.0" encoding="utf-8"?>
<!-- Generator: Adobe Illustrator 19.2.1, SVG Export Plug-In . SVG Version: 6.00 Build 0)  -->
<svg version="1.1" id="layer" xmlns="http://www.w3.org/2000/svg" xmlns:xlink="http://www.w3.org/1999/xlink" x="0px" y="0px"
	 viewBox="0 0 652 652" style="enable-background:new 0 0 652 652;" xml:space="preserve">
<style type="text/css">
	.st0{fill:#007E35;}
	.st1{fill:#FFE100;}
</style>
<rect x="66.2" y="66.8" class="st0" width="500" height="500"/>
<path class="st1" d="M174.8,507.3c-28.3,0-38.2-15.7-38.2-35.3v-77.4h-26.9v-32.8h26.9V328L182,315v46.7h44.8l-12.7,32.8H182v59.7
	c0,10.3,4.2,15.4,13.6,15.4c8.1,0,17.2-3.3,22.6-6.3l11.5,27.7C211.8,503.6,189,507.3,174.8,507.3 M453.1,507.3
	c30.7,0,60.6-12.4,60.6-45.8c0-50.6-67.4-43.7-67.4-59.9c0-5.4,4.8-8.5,15.9-8.5c15.7,0,30.5,4.5,44,10v-37.4
	c-12.3-4.5-25.8-7.2-45.8-7.2c-35.2,0-58.1,17.8-58.1,45.2c0,47.9,66.3,39.7,66.3,59c0,7.3-7.6,11.2-20.4,11.2
	c-13.3,0-27.8-4.8-41-14.2l-13.9,32.5C407.7,501.5,427.6,507.3,453.1,507.3 M333.7,361.7v84.5c0,13.4-6.7,25-22.6,25.9
	c-15.9-0.8-22.6-12.5-22.6-25.9v-84.5H243v86.7c0,49.8,33.4,56.9,51.7,59.2c42.7,5.4,84.6-5.8,84.6-59.2v-86.7H333.7z M443.5,258.1
	h-56.2l45.5,33.1l-17.4,53.5l45.5-33.1l45.4,33.1L489,291.2l45.5-33.1h-56.3l-17.4-53.5L443.5,258.1z"/>
</svg>
